<svg width="120" height="60" viewBox="0 0 120 60" fill="none" xmlns="http://www.w3.org/2000/svg">
<path d="M89.4531 26.1927C89.7187 26.5365 89.901 26.9167 90.0104 27.3333C90.1198 27.75 90.1458 28.1719 90.0885 28.599C90.026 29.026 89.8906 29.4219 89.6718 29.7969C89.4531 30.1667 89.1718 30.4844 88.8281 30.7448C88.4791 31 88.0989 31.1875 87.6823 31.2969C87.2604 31.4063 86.8385 31.4323 86.4114 31.3698C85.9791 31.3125 85.5781 31.1771 85.2083 30.9583C84.8333 30.7396 84.5156 30.4583 84.2552 30.1146C83.9895 29.776 83.8073 29.3958 83.6979 28.9792C83.5885 28.5625 83.5625 28.1406 83.6198 27.7135C83.6823 27.2865 83.8177 26.8854 84.0364 26.5156C84.2552 26.1458 84.5364 25.8281 84.8802 25.5677C85.2291 25.3073 85.6093 25.125 86.026 25.0156C86.4479 24.9063 86.8698 24.8802 87.2968 24.9375C87.7291 25 88.1302 25.1354 88.5 25.3542C88.875 25.5729 89.1927 25.849 89.4531 26.1927Z" fill="#423D9B"/>
<path d="M88.1198 27.2031C88.2448 27.3698 88.3334 27.5521 88.3907 27.7552C88.4428 27.9583 88.4532 28.1615 88.4271 28.3698C88.3959 28.5781 88.3282 28.7708 88.224 28.9531C88.1146 29.1302 87.9792 29.2865 87.8126 29.4115C87.6459 29.5365 87.4584 29.6302 87.2553 29.6823C87.0521 29.7344 86.849 29.7448 86.6407 29.7188C86.4271 29.6875 86.2344 29.625 86.0521 29.5156C85.8698 29.4115 85.7188 29.2761 85.5886 29.1094C85.4636 28.9427 85.3751 28.7552 85.3178 28.5573C85.2657 28.3542 85.2553 28.1458 85.2813 27.9427C85.3126 27.7344 85.3803 27.5417 85.4844 27.3594C85.5938 27.1771 85.7292 27.0261 85.8959 26.8958C86.0626 26.7708 86.2501 26.6823 86.4532 26.6302C86.6563 26.5781 86.8594 26.5625 87.0678 26.5938C87.2761 26.6198 87.474 26.6875 87.6563 26.7917C87.8386 26.9011 87.9896 27.0365 88.1198 27.2031Z" fill="#211A67"/>
<path d="M64.7709 19.4011L54.2136 23.8594L51.9375 17.1979C51.7969 16.7813 51.7448 16.375 51.7709 15.9896C51.9115 13.7708 54.5521 12.25 56.625 13.7031L64.7709 19.4011Z" fill="#F34B58"/>
<path d="M64.7709 19.401L54.2136 23.8594L51.9375 17.1979C51.7969 16.7812 51.7448 16.375 51.7709 15.9896C51.7709 15.9896 55.1355 23.2708 64.7709 19.401Z" fill="#E11226"/>
<path d="M50.8854 49.2604C50.8854 49.2604 57.7239 49.6823 62.1354 47.3802C64.052 46.7656 62.3073 41.3281 60.3906 41.9375L50.8854 49.2604Z" fill="#423D9B"/>
<path d="M61.9011 46.6406C61.3698 46.8073 60.7917 45.9323 60.474 44.9583C60.1407 43.9531 60.0834 42.849 60.6251 42.6719C61.1563 42.5052 61.7396 43.3958 62.0573 44.3802C62.3855 45.3802 62.4376 46.4688 61.9011 46.6406Z" fill="#211A67"/>
<mask id="mask0_229_2" style="mask-type:luminance" maskUnits="userSpaceOnUse" x="23" y="13" width="75" height="27">
<path d="M23.1927 13.3333H97.1928V40H23.1927V13.3333Z" fill="white"/>
</mask>
<g mask="url(#mask0_229_2)">
<path d="M42.7917 29.3437C49.2604 26.0364 83.6511 8.93224 90.1823 15.802C91.6146 15.3958 93.0313 15.3906 94.2656 15.9114C96.3594 16.7968 97.2292 19.427 95.9167 21.2708C91.125 28.0156 64.0261 38.2812 34.5521 39.4635C33.4323 39.5104 32.375 38.9687 31.7396 38.0572L23.6927 26.4114C23.2708 25.7968 23.5573 24.9531 24.2708 24.7291L28.0156 23.5364C28.8906 23.2604 29.8386 23.3541 30.6458 23.7916L40.7031 29.3125C41.349 29.6666 42.1354 29.6822 42.7917 29.3437Z" fill="#E9E7FC"/>
</g>
<mask id="mask1_229_2" style="mask-type:luminance" maskUnits="userSpaceOnUse" x="30" y="16" width="68" height="24">
<path d="M30.6666 16H97.1927V40H30.6666V16Z" fill="white"/>
</mask>
<g mask="url(#mask1_229_2)">
<path d="M95.9115 21.2708C91.1198 28.0156 64.0208 38.2813 34.5521 39.4688C33.4375 39.5104 32.3698 38.974 31.7396 38.0521L30.7188 36.5677C84.6406 34.4688 95.1354 16.4375 95.1354 16.4375C96.5781 17.5781 97.0365 19.7083 95.9115 21.2708Z" fill="#CCCFF2"/>
</g>
<path d="M59.3438 41.1979C59.3438 41.1979 66.1875 41.6198 70.599 39.3125C72.5156 38.7031 70.7656 33.2656 68.849 33.875L59.3438 41.1979Z" fill="#423D9B"/>
<path d="M70.526 36.3386C70.6093 36.6042 70.6718 36.8646 70.7083 37.1198C70.7447 37.375 70.7552 37.6094 70.7395 37.8177C70.7239 38.0261 70.6875 38.1979 70.6197 38.3281C70.552 38.4636 70.4687 38.5469 70.3593 38.5781C70.2552 38.6146 70.1354 38.5938 70.0052 38.5261C69.875 38.4583 69.7395 38.3386 69.6041 38.1771C69.4687 38.0156 69.3437 37.8177 69.2239 37.5886C69.1041 37.3594 69.0052 37.1146 68.9166 36.849C68.8333 36.5886 68.776 36.3281 68.7343 36.0729C68.6979 35.8177 68.6875 35.5833 68.7031 35.375C68.7187 35.1615 68.7604 34.9948 68.8281 34.8594C68.8906 34.7292 68.9791 34.6458 69.0885 34.6146C69.1927 34.5781 69.3125 34.5938 69.4427 34.6667C69.5729 34.7344 69.7083 34.849 69.8437 35.0104C69.9739 35.1771 70.1041 35.3698 70.2239 35.599C70.3385 35.8281 70.4427 36.0781 70.526 36.3386Z" fill="#211A67"/>
<path d="M28.9427 42.5156C28.8125 42.5573 28.677 42.599 28.5364 42.6354C27.1614 43.0417 25.5208 43.3385 24.901 42.8646C23.6197 41.8906 29.0468 37.5 31.3802 36.0365C33.1197 34.9479 39.5104 32.7917 40.651 34.4167C41.6406 35.8333 32.1354 41.5 28.9427 42.5156Z" fill="#F34B58"/>
<path d="M53.4688 29.3906C53.7761 30.276 53.3021 31.2396 52.4115 31.5417C51.5209 31.849 50.5573 31.375 50.25 30.4896C49.9479 29.6042 50.4219 28.6458 51.3073 28.3385C52.1979 28.0365 53.1667 28.5104 53.4688 29.3906Z" fill="#57B3FE"/>
<path d="M59.474 27.0781C59.7813 27.9635 59.3073 28.9271 58.4219 29.2344C57.5313 29.5364 56.5625 29.0625 56.2552 28.1771C55.9531 27.2969 56.4271 26.3333 57.3177 26.0312C58.2083 25.7292 59.1719 26.1979 59.474 27.0781Z" fill="#57B3FE"/>
<path d="M65.4844 24.7708C65.7865 25.651 65.3177 26.6198 64.4271 26.9219C63.5365 27.224 62.5677 26.75 62.2656 25.8646C61.9583 24.9844 62.4323 24.0208 63.3229 23.7188C64.2135 23.4167 65.1771 23.8854 65.4844 24.7708Z" fill="#57B3FE"/>
<path d="M71.4896 22.4583C71.7968 23.3438 71.3229 24.3073 70.4323 24.6094C69.5416 24.9167 68.5729 24.4375 68.2708 23.5573C67.9687 22.6719 68.4375 21.7135 69.3281 21.4063C70.2187 21.1042 71.1875 21.5781 71.4896 22.4583Z" fill="#57B3FE"/>
<path d="M77.4948 20.1458C77.8021 21.0313 77.3282 21.9948 76.4376 22.3021C75.5469 22.6042 74.5834 22.1302 74.2761 21.2448C73.974 20.3646 74.448 19.401 75.3386 19.099C76.224 18.7969 77.1928 19.2656 77.4948 20.1458Z" fill="#57B3FE"/>
<path d="M90.1771 15.8021C89.7865 16.1094 89.4062 16.3906 89.0417 16.651H89.0365C83.4948 20.5729 80.7812 19.3489 80.9844 17.8854C81.0521 17.3906 81.5625 16.8281 82.224 16.3073C83.625 15.1875 85.7083 14.2083 85.7083 14.2083H85.7135C87.6823 14.3073 89.224 14.7969 90.1771 15.8021Z" fill="#57B3FE"/>
<path d="M71.6146 30.0677C72.8542 33.2813 52.0782 49.5729 45.349 52.3594C45.1146 52.4583 44.8959 52.5365 44.698 52.599C42.0261 53.4479 38.8542 53.7552 37.1719 52.4427C35.2865 50.9792 48.5521 38.6771 52.6823 35.375C55.8073 32.8698 70.0365 25.9323 71.6146 30.0677Z" fill="#F34B58"/>
<path d="M45.349 52.3594C45.1146 52.4583 44.8959 52.5364 44.698 52.5989C42.0261 53.4479 38.8542 53.7552 37.1719 52.4427C35.2865 50.9792 48.5521 38.6771 52.6823 35.375C53.0469 35.0885 53.5573 34.7396 54.1876 34.3542C54.1876 34.3542 39.5469 50.0625 45.349 52.3594Z" fill="#E11226"/>
<path d="M28.5364 42.6354C27.1614 43.0417 25.5208 43.3386 24.901 42.8646C23.6197 41.8906 29.0468 37.5 31.3802 36.0365C31.3802 36.0365 24.875 41.3125 28.5364 42.6354Z" fill="#E11226"/>
<path d="M67.7552 31.8438C67.4636 32.7188 67.0417 33.5365 66.5625 34.3177C65.1823 36.5729 63.0573 38.849 60.6302 39.9219C62.7188 37.6875 61.2188 39.5 66 33.9219C66.573 33.2292 67.1459 32.5365 67.7552 31.8438Z" fill="white"/>
<path d="M89.0365 16.651C83.4948 20.5729 80.7812 19.3489 80.9844 17.8854C81.0521 17.3906 81.5625 16.8281 82.224 16.3073L89.0365 16.651Z" fill="#5094FF"/>
<path d="M30.8646 25.7812C33.224 26.4844 36.875 28.5313 38.7032 30.1719C36.8177 29.6146 34.3073 28.2708 32.6667 27.1563C32.0417 26.7396 31.4323 26.2969 30.8646 25.7812Z" fill="white"/>
<path d="M56.2031 15.2761C57.1406 15.599 58.0938 16.1979 58.8854 16.7396C59.6198 17.25 60.5781 18.0469 61.1615 18.7761C60.276 18.4688 59.2083 17.8334 58.4792 17.3125C57.7031 16.7448 56.8229 16.0469 56.2031 15.2761Z" fill="white"/>
</svg>
