<svg width="72" height="30" viewBox="0 0 72 30" fill="none" xmlns="http://www.w3.org/2000/svg">
<g clip-path="url(#clip0_230_5)">
<path d="M19.008 3.864H23.808C25.3653 3.864 26.5387 4.13067 27.328 4.664C28.1387 5.19733 28.544 6.12533 28.544 7.448V25.176C28.544 25.9227 28.4267 26.4133 28.192 26.648C27.9787 26.8827 27.5093 27 26.784 27H23.424V7.832C23.424 7.49067 23.3707 7.256 23.264 7.128C23.1787 6.97867 22.944 6.904 22.56 6.904H19.008V3.864ZM7.392 27H4.032C3.30667 27 2.82667 26.8827 2.592 26.648C2.37867 26.4133 2.272 25.9227 2.272 25.176V5.144C2.272 4.76 2.37867 4.45067 2.592 4.216C2.80533 3.98133 3.08267 3.864 3.424 3.864H7.392V27ZM8.704 3.864H16.896C17.2373 3.864 17.5147 3.98133 17.728 4.216C17.9413 4.45067 18.048 4.76 18.048 5.144V24.664H14.72C14.08 24.664 13.6213 24.4933 13.344 24.152C13.0667 23.7893 12.928 23.2133 12.928 22.424V7.832C12.928 7.49067 12.8747 7.256 12.768 7.128C12.6827 6.97867 12.448 6.904 12.064 6.904H8.704V3.864ZM38.5573 3.864V23.032C38.5573 23.352 38.6319 23.5867 38.7812 23.736C38.9519 23.8853 39.3146 23.96 39.8693 23.96H42.2373V27H38.1733C37.3199 27 36.6053 26.936 36.0293 26.808C35.4746 26.68 34.9839 26.424 34.5573 26.04C34.1519 25.6347 33.8319 25.1867 33.5973 24.696C33.3839 24.2053 33.2133 23.4693 33.0853 22.488C32.8933 21.016 32.7973 19.0427 32.7973 16.568C32.7973 14.072 32.8079 12.312 32.8293 11.288C32.8719 10.264 32.9573 9.272 33.0853 8.312C33.2133 7.33066 33.3839 6.60533 33.5973 6.136C33.8319 5.64533 34.1519 5.208 34.5573 4.824C34.9839 4.41867 35.4746 4.16267 36.0293 4.056C36.6053 3.928 37.3199 3.864 38.1733 3.864H38.5573ZM39.8373 3.896H43.9013C44.7546 3.896 45.4586 3.96 46.0133 4.088C46.5893 4.216 47.0799 4.48267 47.4853 4.888C47.9119 5.272 48.2319 5.70933 48.4453 6.2C48.6799 6.69067 48.8613 7.42667 48.9893 8.408C49.1813 9.88 49.2773 11.864 49.2773 14.36C49.2773 16.8347 49.2559 18.584 49.2133 19.608C49.1919 20.632 49.1173 21.6347 48.9893 22.616C48.8613 23.576 48.6799 24.3013 48.4453 24.792C48.2319 25.2613 47.9119 25.6987 47.4853 26.104C47.0799 26.488 46.5893 26.744 46.0133 26.872C45.4586 26.9787 44.7546 27.032 43.9013 27.032H43.5173V7.864C43.5173 7.544 43.4319 7.30933 43.2613 7.16C43.1119 7.01067 42.7599 6.936 42.2053 6.936H39.8373V3.896ZM68.7533 15.384L68.7853 20.792C68.7853 23.3307 68.4653 25.0053 67.8253 25.816C67.1853 26.6053 66.0226 27 64.3373 27H59.6333V23.96H62.0013C62.5346 23.96 62.8866 23.896 63.0573 23.768C63.2279 23.64 63.3133 23.3947 63.3133 23.032V7.864C63.3133 7.48 63.2279 7.224 63.0573 7.096C62.8866 6.968 62.5346 6.904 62.0013 6.904H59.6333V3.864H64.6573C66.2146 3.864 67.2919 4.22667 67.8893 4.952C68.5079 5.656 68.8173 7.04267 68.8173 9.112L68.7533 15.384ZM58.6733 27.032H55.3133C54.6093 27.032 54.1399 26.9147 53.9053 26.68C53.6706 26.424 53.5533 25.9333 53.5533 25.208V5.688C53.5533 4.96267 53.6706 4.48267 53.9053 4.248C54.1399 3.992 54.6093 3.864 55.3133 3.864H58.6733V27.032Z" fill="url(#paint0_linear_230_5)"/>
</g>
<defs>
<linearGradient id="paint0_linear_230_5" x1="1" y1="4.5" x2="71" y2="26.5" gradientUnits="userSpaceOnUse">
<stop stop-color="#00D301"/>
<stop offset="0.7" stop-color="#36C275"/>
<stop offset="1" stop-color="#00A562"/>
</linearGradient>
<clipPath id="clip0_230_5">
<rect width="72" height="30" fill="white"/>
</clipPath>
</defs>
</svg>
