<svg width="72" height="30" viewBox="0 0 72 30" fill="none" xmlns="http://www.w3.org/2000/svg">
<path d="M0.42832 0.356998H13.2613C13.6987 0.356998 14.054 0.507332 14.3273 0.807999C14.6007 1.10867 14.7373 1.505 14.7373 1.997V30H10.4323C9.50299 30 8.88799 29.8497 8.58732 29.549C8.31399 29.2483 8.17732 28.6197 8.17732 27.663V5.482H1.61732C0.824654 5.482 0.42832 4.826 0.42832 3.514V0.356998ZM16.3773 0.356998H22.9373C23.73 0.356998 24.1263 1.013 24.1263 2.325V5.482H16.3773V0.356998ZM34.4308 30H33.9388C32.8454 30 31.9298 29.918 31.1918 29.754C30.4811 29.59 29.8524 29.262 29.3058 28.77C28.7864 28.2507 28.3764 27.6767 28.0758 27.048C27.8024 26.4193 27.5838 25.4763 27.4198 24.219C27.1738 22.333 27.0508 19.8047 27.0508 16.634C27.0508 13.436 27.0644 11.181 27.0918 9.869C27.1464 8.557 27.2558 7.286 27.4198 6.056C27.5838 4.79866 27.8024 3.86933 28.0758 3.268C28.3764 2.63933 28.7864 2.079 29.3058 1.587C29.8524 1.06767 30.4811 0.739666 31.1918 0.603C31.9298 0.438999 32.8454 0.356998 33.9388 0.356998H34.4308V30ZM36.0708 0.356998H41.2778C43.2731 0.356998 44.7764 0.698665 45.7878 1.382C46.8264 2.06533 47.3458 3.25433 47.3458 4.949V8.639C47.3458 9.213 47.1544 9.5 46.7718 9.5H41.6058C41.2231 9.5 40.9908 9.44533 40.9088 9.336C40.8268 9.22667 40.7858 8.99433 40.7858 8.639V5.441C40.7858 5.00367 40.7174 4.703 40.5808 4.539C40.4714 4.34767 40.1708 4.252 39.6788 4.252H36.0708V0.356998ZM41.6058 20.857H46.7718C47.1544 20.857 47.3458 21.144 47.3458 21.718V25.408C47.3458 27.1027 46.8264 28.2917 45.7878 28.975C44.7764 29.6583 43.2731 30 41.2778 30H36.0708V26.105H39.6788C40.1708 26.105 40.4714 26.023 40.5808 25.859C40.7174 25.6677 40.7858 25.3533 40.7858 24.916V21.718C40.7858 21.3627 40.8268 21.1303 40.9088 21.021C40.9908 20.9117 41.2231 20.857 41.6058 20.857ZM63.4331 16.265H58.9231V30H54.6181C53.6888 30 53.0738 29.8497 52.7731 29.549C52.4998 29.2483 52.3631 28.6197 52.3631 27.663V0.356998H57.4471C57.8845 0.356998 58.2398 0.507332 58.5131 0.807999C58.7865 1.10867 58.9231 1.505 58.9231 1.997V12.37H63.4331V16.265ZM65.0731 0.356998H69.3781C70.3075 0.356998 70.9088 0.507332 71.1821 0.807999C71.4828 1.10867 71.6331 1.73733 71.6331 2.694V30H66.5491C66.1118 30 65.7565 29.8497 65.4831 29.549C65.2098 29.2483 65.0731 28.852 65.0731 28.36V0.356998Z" fill="url(#paint0_linear_228_11)"/>
<defs>
<linearGradient id="paint0_linear_228_11" x1="4.62963" y1="2.5" x2="78.5276" y2="23.3009" gradientUnits="userSpaceOnUse">
<stop stop-color="#00D301"/>
<stop offset="0.697423" stop-color="#36C275" stop-opacity="0.83"/>
<stop offset="1" stop-color="#00A562"/>
</linearGradient>
</defs>
</svg>
