<svg xmlns="http://www.w3.org/2000/svg" xmlns:xlink="http://www.w3.org/1999/xlink" width="1080" zoomAndPan="magnify" viewBox="0 0 810 809.999993" height="1080" preserveAspectRatio="xMidYMid meet" version="1.0"><defs><clipPath id="d65888cb68"><path d="M 285 176.167969 L 699 176.167969 L 699 633.667969 L 285 633.667969 Z M 285 176.167969 " clip-rule="nonzero"/></clipPath><clipPath id="165bdd0173"><path d="M 84 176.167969 L 498 176.167969 L 498 633.667969 L 84 633.667969 Z M 84 176.167969 " clip-rule="nonzero"/></clipPath></defs><rect x="-81" width="972" fill="#ffffff" y="-80.999999" height="971.999992" fill-opacity="1"/><rect x="-81" width="972" fill="#242424" y="-80.999999" height="971.999992" fill-opacity="1"/><g clip-path="url(#d65888cb68)"><path fill="#ffffff" d="M 503.996094 623.027344 C 582.386719 623.027344 651.066406 580.117188 688.410156 516.011719 C 689.394531 514.328125 691.1875 513.269531 693.136719 513.269531 C 697.207031 513.269531 699.796875 517.59375 697.753906 521.109375 C 658.621094 588.480469 586.496094 633.664062 503.996094 633.664062 C 398.1875 633.664062 309.449219 559.34375 285.484375 459.222656 C 284.691406 455.925781 287.230469 452.792969 290.625 452.792969 C 293.132812 452.792969 295.300781 454.550781 295.890625 456.992188 C 318.839844 552.402344 403.425781 623.027344 503.996094 623.027344 Z M 290.625 357.039062 C 293.132812 357.039062 295.300781 355.285156 295.890625 352.84375 C 318.839844 257.433594 403.425781 186.808594 503.996094 186.808594 C 577.492188 186.808594 642.453125 224.527344 681.058594 282.074219 C 682.078125 283.597656 683.78125 284.523438 685.613281 284.523438 C 689.835938 284.523438 692.410156 279.914062 690.058594 276.402344 C 649.597656 215.902344 581.359375 176.171875 503.996094 176.171875 C 398.1875 176.171875 309.449219 250.492188 285.484375 350.609375 C 284.691406 353.910156 287.230469 357.039062 290.625 357.039062 Z M 290.625 357.039062 " fill-opacity="1" fill-rule="evenodd"/></g><g clip-path="url(#165bdd0173)"><path fill="#ffffff" d="M 492.480469 452.792969 C 489.96875 452.792969 487.800781 454.550781 487.214844 456.992188 C 464.265625 552.402344 379.675781 623.027344 279.105469 623.027344 C 205.609375 623.027344 140.648438 585.304688 102.042969 527.757812 C 101.023438 526.238281 99.320312 525.3125 97.488281 525.3125 C 93.265625 525.3125 90.691406 529.921875 93.039062 533.433594 C 133.507812 593.929688 201.746094 633.664062 279.105469 633.664062 C 384.914062 633.664062 473.652344 559.34375 497.621094 459.222656 C 498.410156 455.925781 495.875 452.792969 492.480469 452.792969 Z M 492.480469 357.039062 C 495.875 357.039062 498.410156 353.910156 497.621094 350.609375 C 473.652344 250.492188 384.914062 176.171875 279.105469 176.171875 C 196.609375 176.171875 124.484375 221.355469 85.351562 288.722656 C 83.308594 292.242188 85.898438 296.5625 89.964844 296.5625 C 91.914062 296.5625 93.707031 295.507812 94.6875 293.824219 C 132.039062 229.714844 200.71875 186.808594 279.105469 186.808594 C 379.675781 186.808594 464.265625 257.433594 487.214844 352.84375 C 487.800781 355.285156 489.96875 357.039062 492.480469 357.039062 Z M 492.480469 357.039062 " fill-opacity="1" fill-rule="evenodd"/></g><path fill="#1860e7" d="M 274.878906 437.007812 C 273.574219 437.460938 271.984375 437.6875 270.113281 437.6875 C 265.402344 437.6875 261.941406 436.46875 259.726562 434.027344 C 257.570312 431.53125 256.492188 427.699219 256.492188 422.535156 L 256.492188 397.683594 L 247.296875 397.683594 L 247.296875 394.191406 L 263.472656 375.382812 L 266.707031 375.382812 L 266.707031 394.191406 L 282.03125 394.191406 L 282.03125 397.683594 L 266.707031 397.683594 L 266.707031 423.558594 C 266.707031 428.152344 268.921875 430.453125 273.347656 430.453125 C 274.539062 430.453125 275.671875 430.195312 276.753906 429.6875 C 277.886719 429.175781 279.277344 428.265625 280.921875 426.960938 L 283.476562 430.195312 Z M 315.511719 390.789062 C 319.253906 390.789062 322.605469 391.78125 325.554688 393.765625 C 328.5625 395.695312 330.890625 398.335938 332.535156 401.683594 C 334.238281 405.03125 335.089844 408.71875 335.089844 412.75 C 335.089844 417.117188 333.757812 421.230469 331.089844 425.089844 C 328.421875 428.890625 325.074219 431.957031 321.042969 434.28125 C 317.070312 436.550781 313.210938 437.6875 309.464844 437.6875 C 305.71875 437.6875 302.34375 436.722656 299.335938 434.792969 C 296.386719 432.808594 294.058594 430.140625 292.355469 426.792969 C 290.710938 423.445312 289.886719 419.753906 289.886719 415.726562 C 289.886719 411.359375 291.21875 407.273438 293.886719 403.46875 C 296.554688 399.613281 299.875 396.546875 303.847656 394.277344 C 307.878906 391.953125 311.765625 390.789062 315.511719 390.789062 Z M 310.574219 397.9375 C 304.160156 397.9375 300.953125 402.507812 300.953125 411.640625 C 300.953125 417.03125 302.117188 421.542969 304.445312 425.175781 C 306.769531 428.75 310.089844 430.539062 314.402344 430.539062 C 320.816406 430.539062 324.023438 425.941406 324.023438 416.75 C 324.023438 411.414062 322.859375 406.960938 320.53125 403.386719 C 318.207031 399.753906 314.886719 397.9375 310.574219 397.9375 Z M 372.621094 390.789062 C 376.367188 390.789062 379.714844 391.78125 382.667969 393.765625 C 385.675781 395.695312 388.003906 398.335938 389.648438 401.683594 C 391.351562 405.03125 392.203125 408.71875 392.203125 412.75 C 392.203125 417.117188 390.867188 421.230469 388.199219 425.089844 C 385.535156 428.890625 382.183594 431.957031 378.15625 434.28125 C 374.183594 436.550781 370.324219 437.6875 366.578125 437.6875 C 362.832031 437.6875 359.457031 436.722656 356.449219 434.792969 C 353.496094 432.808594 351.171875 430.140625 349.46875 426.792969 C 347.820312 423.445312 347 419.753906 347 415.726562 C 347 411.359375 348.332031 407.273438 351 403.46875 C 353.667969 399.613281 356.988281 396.546875 360.960938 394.277344 C 364.988281 391.953125 368.878906 390.789062 372.621094 390.789062 Z M 367.683594 397.9375 C 361.273438 397.9375 358.066406 402.507812 358.066406 411.640625 C 358.066406 417.03125 359.230469 421.542969 361.554688 425.175781 C 363.882812 428.75 367.203125 430.539062 371.515625 430.539062 C 377.929688 430.539062 381.136719 425.941406 381.136719 416.75 C 381.136719 411.414062 379.972656 406.960938 377.644531 403.386719 C 375.320312 399.753906 372 397.9375 367.683594 397.9375 Z M 424.882812 436.835938 L 401.132812 436.835938 L 401.132812 434.195312 L 408.707031 428.238281 L 408.707031 375.894531 L 401.132812 370.617188 L 401.132812 367.976562 L 415.6875 362.53125 L 418.925781 362.53125 L 418.925781 430.453125 L 426.585938 433.429688 Z M 456.308594 436.835938 L 432.554688 436.835938 L 432.554688 434.195312 L 440.132812 428.238281 L 440.132812 375.894531 L 432.554688 370.617188 L 432.554688 367.976562 L 447.113281 362.53125 L 450.347656 362.53125 L 450.347656 430.453125 L 458.007812 433.429688 Z M 494.710938 437.007812 C 492.441406 437.460938 489.71875 437.6875 486.539062 437.6875 C 482.792969 437.6875 479.417969 436.722656 476.410156 434.792969 C 473.457031 432.808594 471.132812 430.140625 469.429688 426.792969 C 467.78125 423.445312 466.960938 419.753906 466.960938 415.726562 C 466.960938 411.359375 468.292969 407.273438 470.960938 403.46875 C 473.628906 399.613281 476.949219 396.546875 480.921875 394.277344 C 484.949219 391.953125 488.839844 390.789062 492.582031 390.789062 C 497.976562 390.789062 502.144531 392.917969 505.097656 397.171875 C 508.105469 401.429688 509.609375 407.046875 509.609375 414.023438 L 478.113281 414.023438 C 478.453125 418.847656 479.757812 422.792969 482.027344 425.855469 C 484.355469 428.921875 487.503906 430.453125 491.476562 430.453125 C 495.164062 430.453125 500.414062 427.585938 507.226562 421.855469 L 509.78125 425.089844 Z M 487.644531 397.9375 C 481.515625 397.9375 478.308594 402.136719 478.027344 410.535156 L 497.945312 410.535156 C 497.4375 407.472656 496.898438 405.144531 496.328125 403.554688 C 495.820312 401.910156 494.882812 400.578125 493.519531 399.554688 C 492.214844 398.476562 490.257812 397.9375 487.644531 397.9375 Z M 551.117188 390.875 C 552.988281 390.875 554.632812 391.382812 556.054688 392.40625 C 557.472656 393.425781 558.578125 394.84375 559.375 396.660156 L 553.753906 403.726562 L 550.519531 403.726562 C 550.292969 402.308594 549.867188 401.3125 549.242188 400.746094 C 548.675781 400.121094 547.878906 399.8125 546.859375 399.8125 C 545.609375 399.8125 544.277344 400.152344 542.859375 400.832031 C 541.496094 401.457031 539.9375 402.675781 538.175781 404.492188 L 538.175781 429.855469 L 550.09375 433.515625 L 548.390625 436.921875 L 520.382812 436.921875 L 520.382812 434.28125 L 527.960938 428.324219 L 527.960938 404.238281 L 520.382812 399.8125 L 520.382812 397.171875 L 534.941406 390.023438 L 537.582031 400.492188 L 546.433594 391.46875 C 547.625 391.015625 549.1875 390.789062 551.117188 390.789062 Z M 551.117188 390.875 " fill-opacity="1" fill-rule="nonzero"/></svg>