<svg xmlns="http://www.w3.org/2000/svg" xmlns:xlink="http://www.w3.org/1999/xlink" width="1080" zoomAndPan="magnify" viewBox="0 0 810 809.999993" height="1080" preserveAspectRatio="xMidYMid meet" version="1.0"><defs><clipPath id="f8bc7ff941"><path d="M 307 195.597656 L 686 195.597656 L 686 614.097656 L 307 614.097656 Z M 307 195.597656 " clip-rule="nonzero"/></clipPath><clipPath id="65a178462c"><path d="M 123 195.597656 L 502 195.597656 L 502 614.097656 L 123 614.097656 Z M 123 195.597656 " clip-rule="nonzero"/></clipPath></defs><rect x="-81" width="972" fill="#ffffff" y="-80.999999" height="971.999992" fill-opacity="1"/><rect x="-81" width="972" fill="#ffffff" y="-80.999999" height="971.999992" fill-opacity="1"/><g clip-path="url(#f8bc7ff941)"><path fill="#000000" d="M 507.4375 604.367188 C 579.21875 604.367188 642.105469 565.117188 676.300781 506.472656 C 677.203125 504.933594 678.84375 503.96875 680.625 503.96875 C 684.355469 503.96875 686.726562 507.921875 684.855469 511.140625 C 649.023438 572.765625 582.980469 614.097656 507.4375 614.097656 C 410.554688 614.097656 329.300781 546.113281 307.355469 454.527344 C 306.632812 451.507812 308.953125 448.644531 312.0625 448.644531 C 314.359375 448.644531 316.34375 450.25 316.882812 452.484375 C 337.898438 539.761719 415.351562 604.367188 507.4375 604.367188 Z M 312.0625 361.050781 C 314.359375 361.050781 316.34375 359.445312 316.882812 357.214844 C 337.898438 269.933594 415.351562 205.332031 507.4375 205.332031 C 574.738281 205.332031 634.21875 239.835938 669.566406 292.476562 C 670.503906 293.867188 672.0625 294.71875 673.738281 294.71875 C 677.605469 294.71875 679.964844 290.5 677.8125 287.289062 C 640.761719 231.945312 578.277344 195.597656 507.4375 195.597656 C 410.554688 195.597656 329.300781 263.585938 307.355469 355.171875 C 306.632812 358.191406 308.953125 361.050781 312.0625 361.050781 Z M 312.0625 361.050781 " fill-opacity="1" fill-rule="evenodd"/></g><g clip-path="url(#65a178462c)"><path fill="#000000" d="M 496.894531 448.644531 C 494.59375 448.644531 492.609375 450.25 492.070312 452.484375 C 471.058594 539.761719 393.605469 604.367188 301.515625 604.367188 C 234.21875 604.367188 174.734375 569.863281 139.386719 517.21875 C 138.453125 515.828125 136.894531 514.980469 135.21875 514.980469 C 131.347656 514.980469 128.992188 519.199219 131.144531 522.410156 C 168.195312 577.753906 230.679688 614.097656 301.515625 614.097656 C 398.398438 614.097656 479.65625 546.113281 501.601562 454.527344 C 502.324219 451.507812 500 448.644531 496.894531 448.644531 Z M 496.894531 361.050781 C 500 361.050781 502.324219 358.191406 501.601562 355.171875 C 479.65625 263.585938 398.398438 195.597656 301.515625 195.597656 C 225.976562 195.597656 159.933594 236.933594 124.101562 298.558594 C 122.230469 301.777344 124.601562 305.730469 128.328125 305.730469 C 130.113281 305.730469 131.753906 304.765625 132.652344 303.226562 C 166.851562 244.582031 229.738281 205.332031 301.515625 205.332031 C 393.605469 205.332031 471.058594 269.933594 492.070312 357.214844 C 492.609375 359.445312 494.59375 361.050781 496.894531 361.050781 Z M 496.894531 361.050781 " fill-opacity="1" fill-rule="evenodd"/></g><path fill="#1860e7" d="M 297.644531 434.203125 C 296.449219 434.617188 294.996094 434.824219 293.28125 434.824219 C 288.96875 434.824219 285.796875 433.710938 283.769531 431.476562 C 281.796875 429.195312 280.808594 425.691406 280.808594 420.964844 L 280.808594 398.230469 L 272.390625 398.230469 L 272.390625 395.039062 L 287.199219 377.832031 L 290.164062 377.832031 L 290.164062 395.039062 L 304.195312 395.039062 L 304.195312 398.230469 L 290.164062 398.230469 L 290.164062 421.902344 C 290.164062 426.105469 292.1875 428.207031 296.242188 428.207031 C 297.332031 428.207031 298.375 427.972656 299.359375 427.507812 C 300.398438 427.039062 301.671875 426.207031 303.179688 425.015625 L 305.519531 427.972656 Z M 334.851562 391.925781 C 338.28125 391.925781 341.347656 392.832031 344.046875 394.648438 C 346.800781 396.414062 348.933594 398.828125 350.4375 401.890625 C 352 404.953125 352.777344 408.328125 352.777344 412.011719 C 352.777344 416.007812 351.558594 419.773438 349.113281 423.300781 C 346.671875 426.78125 343.605469 429.582031 339.917969 431.710938 C 336.277344 433.789062 332.746094 434.824219 329.316406 434.824219 C 325.886719 434.824219 322.792969 433.941406 320.039062 432.179688 C 317.335938 430.363281 315.207031 427.921875 313.648438 424.859375 C 312.140625 421.796875 311.386719 418.421875 311.386719 414.738281 C 311.386719 410.742188 312.609375 407.003906 315.050781 403.527344 C 317.492188 399.996094 320.535156 397.191406 324.171875 395.117188 C 327.859375 392.988281 331.421875 391.925781 334.851562 391.925781 Z M 330.328125 398.464844 C 324.457031 398.464844 321.519531 402.644531 321.519531 411 C 321.519531 415.929688 322.585938 420.058594 324.714844 423.378906 C 326.847656 426.648438 329.886719 428.285156 333.835938 428.285156 C 339.707031 428.285156 342.644531 424.082031 342.644531 415.671875 C 342.644531 410.792969 341.578125 406.71875 339.449219 403.449219 C 337.316406 400.125 334.277344 398.464844 330.328125 398.464844 Z M 387.144531 391.925781 C 390.574219 391.925781 393.640625 392.832031 396.34375 394.648438 C 399.097656 396.414062 401.226562 398.828125 402.734375 401.890625 C 404.292969 404.953125 405.074219 408.328125 405.074219 412.011719 C 405.074219 416.007812 403.851562 419.773438 401.410156 423.300781 C 398.96875 426.78125 395.902344 429.582031 392.210938 431.710938 C 388.574219 433.789062 385.039062 434.824219 381.609375 434.824219 C 378.179688 434.824219 375.089844 433.941406 372.335938 432.179688 C 369.632812 430.363281 367.503906 427.921875 365.945312 424.859375 C 364.4375 421.796875 363.683594 418.421875 363.683594 414.738281 C 363.683594 410.742188 364.902344 407.003906 367.347656 403.527344 C 369.789062 399.996094 372.828125 397.191406 376.464844 395.117188 C 380.15625 392.988281 383.714844 391.925781 387.144531 391.925781 Z M 382.625 398.464844 C 376.753906 398.464844 373.816406 402.644531 373.816406 411 C 373.816406 415.929688 374.882812 420.058594 377.011719 423.378906 C 379.140625 426.648438 382.183594 428.285156 386.132812 428.285156 C 392.003906 428.285156 394.941406 424.082031 394.941406 415.671875 C 394.941406 410.792969 393.875 406.71875 391.746094 403.449219 C 389.613281 400.125 386.574219 398.464844 382.625 398.464844 Z M 435 434.046875 L 413.25 434.046875 L 413.25 431.632812 L 420.1875 426.183594 L 420.1875 378.296875 L 413.25 373.472656 L 413.25 371.058594 L 426.578125 366.074219 L 429.542969 366.074219 L 429.542969 428.207031 L 436.558594 430.933594 Z M 463.773438 434.046875 L 442.023438 434.046875 L 442.023438 431.632812 L 448.960938 426.183594 L 448.960938 378.296875 L 442.023438 373.472656 L 442.023438 371.058594 L 455.351562 366.074219 L 458.316406 366.074219 L 458.316406 428.207031 L 465.332031 430.933594 Z M 498.9375 434.203125 C 496.859375 434.617188 494.363281 434.824219 491.453125 434.824219 C 488.023438 434.824219 484.933594 433.941406 482.179688 432.179688 C 479.476562 430.363281 477.347656 427.921875 475.785156 424.859375 C 474.28125 421.796875 473.527344 418.421875 473.527344 414.738281 C 473.527344 410.742188 474.746094 407.003906 477.191406 403.527344 C 479.632812 399.996094 482.671875 397.191406 486.308594 395.117188 C 490 392.988281 493.558594 391.925781 496.988281 391.925781 C 501.925781 391.925781 505.746094 393.871094 508.449219 397.765625 C 511.203125 401.65625 512.578125 406.796875 512.578125 413.179688 L 483.738281 413.179688 C 484.050781 417.59375 485.246094 421.199219 487.324219 424.003906 C 489.453125 426.804688 492.339844 428.207031 495.976562 428.207031 C 499.351562 428.207031 504.160156 425.585938 510.394531 420.34375 L 512.734375 423.300781 Z M 492.46875 398.464844 C 486.855469 398.464844 483.917969 402.304688 483.660156 409.988281 L 501.898438 409.988281 C 501.433594 407.183594 500.9375 405.058594 500.417969 403.601562 C 499.949219 402.097656 499.09375 400.878906 497.847656 399.945312 C 496.652344 398.957031 494.859375 398.464844 492.46875 398.464844 Z M 550.585938 392.003906 C 552.300781 392.003906 553.808594 392.46875 555.105469 393.402344 C 556.40625 394.339844 557.417969 395.636719 558.144531 397.296875 L 553 403.757812 L 550.039062 403.757812 C 549.832031 402.460938 549.441406 401.554688 548.871094 401.035156 C 548.351562 400.464844 547.621094 400.175781 546.6875 400.175781 C 545.542969 400.175781 544.324219 400.488281 543.023438 401.113281 C 541.777344 401.683594 540.347656 402.800781 538.738281 404.460938 L 538.738281 427.664062 L 549.648438 431.011719 L 548.089844 434.125 L 522.445312 434.125 L 522.445312 431.710938 L 529.382812 426.261719 L 529.382812 404.226562 L 522.445312 400.175781 L 522.445312 397.765625 L 535.773438 391.222656 L 538.191406 400.800781 L 546.296875 392.546875 C 547.390625 392.132812 548.816406 391.925781 550.585938 391.925781 Z M 550.585938 392.003906 " fill-opacity="1" fill-rule="nonzero"/></svg>