<svg xmlns="http://www.w3.org/2000/svg" xmlns:xlink="http://www.w3.org/1999/xlink" width="720" zoomAndPan="magnify" viewBox="0 0 540 225" height="300" preserveAspectRatio="xMidYMid meet" version="1.0"><rect x="-54" width="648" fill="#ffffff" y="-22.5" height="270" fill-opacity="1"/><rect x="-54" width="648" fill="#242424" y="-22.5" height="270" fill-opacity="1"/><path fill="#ffffff" d="M 97.394531 176.328125 C 94.566406 177.3125 91.117188 177.804688 87.058594 177.804688 C 76.84375 177.804688 69.335938 175.160156 64.539062 169.867188 C 59.859375 164.453125 57.523438 156.144531 57.523438 144.945312 L 57.523438 91.039062 L 37.585938 91.039062 L 37.585938 83.46875 L 72.660156 42.671875 L 79.675781 42.671875 L 79.675781 83.46875 L 112.902344 83.46875 L 112.902344 91.039062 L 79.675781 91.039062 L 79.675781 147.160156 C 79.675781 157.128906 84.472656 162.113281 94.074219 162.113281 C 96.65625 162.113281 99.117188 161.558594 101.457031 160.453125 C 103.917969 159.34375 106.933594 157.375 110.5 154.546875 L 116.039062 161.558594 Z M 97.394531 176.328125 " fill-opacity="1" fill-rule="nonzero"/><path fill="#ffffff" d="M 285.203125 169.648438 L 299.714844 171.902344 L 299.714844 175.960938 L 255.820312 175.960938 L 255.820312 171.902344 L 270.242188 169.648438 L 270.242188 54.089844 L 255.820312 51.925781 L 255.820312 47.867188 L 285.203125 47.867188 Z M 336.582031 169.648438 L 351.089844 171.902344 L 351.089844 175.960938 L 307.195312 175.960938 L 307.195312 171.902344 L 321.617188 169.648438 L 321.617188 54.089844 L 307.195312 51.925781 L 307.195312 47.867188 L 336.582031 47.867188 Z M 378.308594 133.324219 L 378.308594 134.945312 C 378.308594 143.238281 379.210938 149.699219 381.015625 154.324219 C 382.878906 158.894531 385.703125 162.378906 389.488281 164.78125 C 393.332031 167.1875 398.347656 168.386719 404.539062 168.386719 C 407.785156 168.386719 411.632812 168.117188 416.078125 167.578125 C 420.523438 167.035156 424.191406 166.433594 427.074219 165.773438 L 427.074219 170.820312 C 424.191406 172.683594 420.253906 174.308594 415.265625 175.691406 C 410.339844 177.070312 405.292969 177.761719 400.125 177.761719 C 386.960938 177.761719 377.320312 174.21875 371.191406 167.125 C 365.121094 160.035156 362.089844 148.648438 362.089844 132.960938 C 362.089844 118.179688 365.179688 107.152344 371.371094 99.878906 C 377.558594 92.609375 386.394531 88.972656 397.871094 88.972656 C 419.5625 88.972656 430.40625 101.292969 430.40625 125.929688 L 430.40625 133.324219 Z M 397.871094 96.183594 C 391.621094 96.183594 386.8125 98.707031 383.449219 103.757812 C 380.144531 108.804688 378.492188 116.257812 378.492188 126.113281 L 414.726562 126.113281 C 414.726562 115.355469 413.34375 107.691406 410.578125 103.125 C 407.816406 98.496094 403.578125 96.183594 397.871094 96.183594 Z M 496.746094 88.972656 L 496.746094 111.867188 L 492.871094 111.867188 L 487.644531 101.953125 C 484.636719 101.953125 481.0625 102.375 476.917969 103.214844 C 472.828125 103.996094 469.285156 105.046875 466.28125 106.371094 L 466.28125 169.648438 L 480.792969 171.902344 L 480.792969 175.960938 L 440.59375 175.960938 L 440.59375 171.902344 L 451.320312 169.648438 L 451.320312 97.535156 L 440.59375 95.28125 L 440.59375 91.226562 L 465.289062 91.226562 L 466.101562 101.773438 C 469.707031 98.769531 474.574219 95.882812 480.699219 93.121094 C 486.890625 90.355469 491.789062 88.972656 495.394531 88.972656 Z M 496.746094 88.972656 " fill-opacity="1" fill-rule="nonzero"/><path fill="#1860e7" d="M 211.527344 121.152344 C 211.527344 148.234375 189.574219 170.191406 162.496094 170.191406 C 146.746094 170.191406 132.734375 162.765625 123.761719 151.222656 C 123.171875 150.464844 122.269531 150 121.304688 150 C 118.945312 150 117.53125 152.578125 118.96875 154.453125 C 128.984375 167.527344 144.753906 175.960938 162.496094 175.960938 C 192.761719 175.960938 217.296875 151.421875 217.296875 121.152344 C 217.296875 90.886719 192.761719 66.347656 162.496094 66.347656 C 143.414062 66.347656 126.609375 76.101562 116.796875 90.894531 C 115.546875 92.78125 116.96875 95.191406 119.234375 95.191406 C 120.265625 95.191406 121.21875 94.65625 121.792969 93.800781 C 130.597656 80.722656 145.542969 72.117188 162.496094 72.117188 C 189.574219 72.117188 211.527344 94.070312 211.527344 121.152344 Z M 211.527344 121.152344 " fill-opacity="1" fill-rule="evenodd"/><path fill="#1860e7" d="M 260.558594 147.113281 C 259.527344 147.113281 258.574219 147.648438 258 148.503906 C 249.195312 161.585938 234.25 170.191406 217.296875 170.191406 C 190.21875 170.191406 168.265625 148.234375 168.265625 121.152344 C 168.265625 94.070312 190.21875 72.117188 217.296875 72.117188 C 233.046875 72.117188 247.058594 79.542969 256.03125 91.082031 C 256.621094 91.84375 257.523438 92.308594 258.488281 92.308594 C 260.847656 92.308594 262.261719 89.730469 260.824219 87.851562 C 250.808594 74.777344 235.039062 66.347656 217.296875 66.347656 C 187.03125 66.347656 162.496094 90.886719 162.496094 121.152344 C 162.496094 151.421875 187.03125 175.960938 217.296875 175.960938 C 236.378906 175.960938 253.183594 166.207031 262.996094 151.414062 C 264.246094 149.523438 262.824219 147.113281 260.558594 147.113281 Z M 260.558594 147.113281 " fill-opacity="1" fill-rule="evenodd"/></svg>