<svg xmlns="http://www.w3.org/2000/svg" xmlns:xlink="http://www.w3.org/1999/xlink" width="800" zoomAndPan="magnify" viewBox="0 0 600 624.749998" height="833" preserveAspectRatio="xMidYMid meet" version="1.0"><defs><clipPath id="46f491a7b0"><path d="M 4.691406 118 L 595.457031 118 L 595.457031 507 L 4.691406 507 Z M 4.691406 118 " clip-rule="nonzero"/></clipPath></defs><g clip-path="url(#46f491a7b0)"><path fill="#2773ff" d="M 410.417969 497.414062 L 595.519531 312.3125 L 410.417969 127.210938 C 398.820312 115.609375 380.011719 115.609375 368.40625 127.210938 C 356.800781 138.808594 356.800781 157.625 368.40625 169.226562 L 481.785156 282.601562 L 34.378906 282.601562 C 17.96875 282.601562 4.667969 295.902344 4.667969 312.3125 C 4.667969 328.71875 17.96875 342.019531 34.378906 342.019531 L 481.785156 342.019531 L 368.40625 455.402344 C 362.605469 461.199219 359.703125 468.804688 359.703125 476.40625 C 359.703125 484.007812 362.605469 491.617188 368.40625 497.414062 C 380.011719 509.011719 398.820312 509.011719 410.417969 497.414062 " fill-opacity="1" fill-rule="nonzero"/></g></svg>